<svg width="205" height="32" fill="none" xmlns="http://www.w3.org/2000/svg">
  <path d="M14.382 25C3.727 25 1.449 13.226 2.102 7c11.258 0 12.28 11.482 12.28 18Zm0 0c4.233 0 13.072-1.705 12.325-18-5.027 0-12.325 3.814-12.325 18Zm11.391-2.3c2.21-.09 5.967-2.112 3.315-9.474" stroke="#1C8026" stroke-width="2" stroke-linecap="round"/>
  <path d="M49.13 13.58a3.01 3.01 0 0 0-.391-.824 2.532 2.532 0 0 0-.591-.631 2.382 2.382 0 0 0-.784-.392 3.267 3.267 0 0 0-.966-.136 3.02 3.02 0 0 0-1.67.471c-.49.315-.874.777-1.154 1.386-.277.607-.415 1.345-.415 2.216 0 .88.138 1.624.415 2.233.276.61.66 1.074 1.153 1.393.493.314 1.065.471 1.716.471.591 0 1.102-.114 1.534-.34.436-.228.771-.55 1.006-.967.235-.42.352-.913.352-1.477l.477.074h-3.159v-1.648h4.722v1.398c0 .996-.212 1.858-.636 2.585a4.347 4.347 0 0 1-1.75 1.682c-.743.39-1.595.585-2.557.585-1.072 0-2.013-.24-2.824-.721-.807-.485-1.438-1.173-1.892-2.063-.45-.894-.676-1.954-.676-3.182 0-.94.132-1.778.398-2.517.268-.739.643-1.365 1.124-1.88a4.788 4.788 0 0 1 1.694-1.182 5.392 5.392 0 0 1 2.113-.41c.644 0 1.245.095 1.801.285.557.185 1.052.45 1.483.795a4.336 4.336 0 0 1 1.625 2.796h-2.147Zm4.192 7.92v-8.727h1.995v1.454h.09c.16-.504.433-.892.819-1.165.39-.276.835-.414 1.335-.414.114 0 .24.005.38.017.145.007.264.02.359.04v1.892a2.168 2.168 0 0 0-.415-.08 3.818 3.818 0 0 0-.54-.04 2.08 2.08 0 0 0-1.011.245c-.296.159-.529.38-.7.664a1.88 1.88 0 0 0-.255.983V21.5h-2.057Zm9.848.17c-.875 0-1.63-.181-2.267-.545a3.694 3.694 0 0 1-1.46-1.557c-.34-.674-.511-1.468-.511-2.38 0-.898.17-1.686.511-2.364a3.866 3.866 0 0 1 1.443-1.591c.618-.383 1.343-.574 2.176-.574a4.41 4.41 0 0 1 1.523.261c.481.17.906.436 1.273.796.371.36.663.818.875 1.375.212.553.318 1.212.318 1.977v.63h-7.153v-1.386h5.181a2.212 2.212 0 0 0-.255-1.05 1.86 1.86 0 0 0-.699-.734 1.965 1.965 0 0 0-1.034-.267c-.42 0-.79.103-1.108.307-.318.2-.566.466-.744.796a2.29 2.29 0 0 0-.267 1.073v1.21c0 .508.092.944.278 1.308.186.36.445.636.778.83.334.189.724.283 1.17.283.3 0 .57-.042.813-.125.243-.087.453-.214.631-.38.178-.167.313-.374.404-.62l1.92.216c-.121.508-.352.95-.693 1.33a3.379 3.379 0 0 1-1.296.875c-.526.204-1.129.306-1.807.306Zm9.485 0c-.875 0-1.63-.181-2.267-.545a3.694 3.694 0 0 1-1.46-1.557c-.341-.674-.512-1.468-.512-2.38 0-.898.17-1.686.512-2.364a3.866 3.866 0 0 1 1.443-1.591c.617-.383 1.343-.574 2.176-.574.538 0 1.045.087 1.523.261.48.17.905.436 1.272.796.371.36.663.818.875 1.375.213.553.319 1.212.319 1.977v.63h-7.154v-1.386h5.182a2.212 2.212 0 0 0-.256-1.05 1.856 1.856 0 0 0-.699-.734 1.965 1.965 0 0 0-1.034-.267c-.42 0-.79.103-1.108.307-.318.2-.566.466-.744.796a2.29 2.29 0 0 0-.267 1.073v1.21c0 .508.093.944.278 1.308.186.36.446.636.779.83.333.189.723.283 1.17.283.3 0 .57-.042.813-.125a1.81 1.81 0 0 0 .63-.38c.178-.167.313-.374.404-.62l1.92.216c-.12.508-.352.95-.693 1.33a3.379 3.379 0 0 1-1.295.875c-.527.204-1.13.306-1.807.306Zm7.677-5.284V21.5h-2.056v-8.727h1.966v1.483h.102c.2-.489.52-.877.96-1.165.443-.288.99-.432 1.642-.432.602 0 1.127.129 1.574.386.45.258.8.631 1.045 1.12.25.488.373 1.081.37 1.778V21.5h-2.057v-5.239c0-.583-.152-1.04-.455-1.369-.299-.33-.714-.494-1.244-.494-.36 0-.68.08-.96.238a1.655 1.655 0 0 0-.654.677c-.155.295-.233.653-.233 1.073ZM92.085 21.5V9.864h2.108v4.926h5.392V9.864h2.114V21.5h-2.114v-4.943h-5.392V21.5h-2.108Zm14.327.176a3.639 3.639 0 0 1-1.494-.295 2.44 2.44 0 0 1-1.046-.887c-.254-.39-.381-.87-.381-1.443 0-.492.091-.9.273-1.221.182-.322.43-.58.745-.773a3.746 3.746 0 0 1 1.062-.438 8.657 8.657 0 0 1 1.233-.221c.511-.053.926-.1 1.244-.142.318-.046.55-.114.693-.205.148-.095.222-.24.222-.437v-.035c0-.428-.127-.759-.381-.994-.253-.235-.619-.352-1.096-.352-.504 0-.904.11-1.199.33-.292.22-.489.479-.591.778l-1.92-.273c.151-.53.401-.973.75-1.33.348-.36.774-.628 1.278-.806a4.893 4.893 0 0 1 1.67-.273c.421 0 .839.05 1.256.148.417.098.797.261 1.142.489.345.223.621.528.83.914.212.387.318.87.318 1.45v5.84h-1.977v-1.199h-.069c-.125.243-.301.47-.528.682a2.538 2.538 0 0 1-.847.506 3.411 3.411 0 0 1-1.187.187Zm.534-1.511c.413 0 .771-.082 1.074-.244a1.81 1.81 0 0 0 .699-.66c.166-.272.25-.57.25-.892v-1.028a.97.97 0 0 1-.33.148 4.64 4.64 0 0 1-.511.119c-.19.034-.377.064-.563.09l-.483.069a3.59 3.59 0 0 0-.823.205 1.365 1.365 0 0 0-.574.397c-.14.167-.211.383-.211.648 0 .379.139.665.415.858.277.193.629.29 1.057.29Zm13.625-7.392-3.108 8.727h-2.273l-3.108-8.727h2.194l2.005 6.483h.091l2.012-6.483h2.187Zm4.99 8.898c-.875 0-1.631-.182-2.267-.546a3.692 3.692 0 0 1-1.46-1.557c-.341-.674-.512-1.468-.512-2.38 0-.898.171-1.686.512-2.364a3.87 3.87 0 0 1 1.443-1.591c.617-.383 1.343-.574 2.176-.574a4.41 4.41 0 0 1 1.523.261c.481.17.905.436 1.273.796.371.36.662.818.875 1.375.212.553.318 1.212.318 1.977v.63h-7.154v-1.386h5.182a2.211 2.211 0 0 0-.256-1.05 1.854 1.854 0 0 0-.698-.734 1.968 1.968 0 0 0-1.034-.267c-.421 0-.79.103-1.108.307-.319.2-.567.466-.745.796a2.295 2.295 0 0 0-.267 1.073v1.21c0 .508.093.944.279 1.308.185.36.445.636.778.83.333.189.724.283 1.17.283.3 0 .571-.042.813-.125.242-.087.453-.214.631-.38.178-.167.312-.374.403-.62l1.921.216c-.122.508-.353.95-.694 1.33a3.38 3.38 0 0 1-1.295.875c-.527.204-1.129.306-1.807.306Zm7.678-5.285V21.5h-2.057v-8.727h1.966v1.483h.102c.201-.489.521-.877.96-1.165.443-.288.991-.432 1.642-.432.603 0 1.127.129 1.574.386.451.258.799.631 1.046 1.12.25.488.373 1.081.369 1.778V21.5h-2.057v-5.239c0-.583-.151-1.04-.454-1.369-.3-.33-.714-.494-1.245-.494-.36 0-.68.08-.96.238a1.65 1.65 0 0 0-.653.677c-.156.295-.233.653-.233 1.073Zm11.752 5.114V9.864h2.108v4.926h5.392V9.864h2.114V21.5h-2.114v-4.943h-5.392V21.5h-2.108Zm14.327.176a3.639 3.639 0 0 1-1.494-.295 2.44 2.44 0 0 1-1.046-.887c-.253-.39-.38-.87-.38-1.443 0-.492.091-.9.272-1.221.182-.322.43-.58.745-.773a3.746 3.746 0 0 1 1.062-.438 8.657 8.657 0 0 1 1.233-.221c.512-.053.926-.1 1.245-.142.318-.046.549-.114.693-.205.147-.095.221-.24.221-.437v-.035c0-.428-.127-.759-.38-.994-.254-.235-.62-.352-1.097-.352-.504 0-.903.11-1.199.33-.291.22-.488.479-.591.778l-1.92-.273c.151-.53.401-.973.75-1.33.348-.36.774-.628 1.278-.806a4.894 4.894 0 0 1 1.671-.273c.42 0 .839.05 1.255.148.417.098.798.261 1.142.489.345.223.622.528.83.914.212.387.318.87.318 1.45v5.84h-1.977v-1.199h-.068a2.5 2.5 0 0 1-.529.682 2.533 2.533 0 0 1-.846.506c-.337.125-.733.187-1.188.187Zm.534-1.511c.413 0 .771-.082 1.074-.244a1.81 1.81 0 0 0 .699-.66c.167-.272.25-.57.25-.892v-1.028a.96.96 0 0 1-.33.148 4.64 4.64 0 0 1-.511.119 14.86 14.86 0 0 1-.562.09l-.483.069c-.307.042-.582.11-.824.205a1.365 1.365 0 0 0-.574.397c-.14.167-.21.383-.21.648 0 .379.138.665.414.858.277.193.629.29 1.057.29Zm6.142 1.335v-8.727h1.995v1.454h.091c.159-.504.431-.892.818-1.165.39-.276.835-.414 1.335-.414.114 0 .24.005.381.017.144.007.263.02.358.04v1.892a2.193 2.193 0 0 0-.415-.08 3.828 3.828 0 0 0-.54-.04c-.375 0-.712.082-1.011.245a1.78 1.78 0 0 0-.699.664 1.868 1.868 0 0 0-.256.983V21.5h-2.057Zm14.405-8.727-3.108 8.727h-2.273l-3.107-8.727h2.193l2.005 6.483h.091l2.012-6.483h2.187Zm4.99 8.898c-.875 0-1.63-.182-2.267-.546a3.698 3.698 0 0 1-1.46-1.557c-.341-.674-.511-1.468-.511-2.38 0-.898.17-1.686.511-2.364a3.87 3.87 0 0 1 1.443-1.591c.618-.383 1.343-.574 2.176-.574a4.41 4.41 0 0 1 1.523.261c.481.17.905.436 1.273.796.371.36.663.818.875 1.375.212.553.318 1.212.318 1.977v.63h-7.154v-1.386h5.182a2.21 2.21 0 0 0-.255-1.05 1.863 1.863 0 0 0-.699-.734 1.966 1.966 0 0 0-1.034-.267c-.421 0-.79.103-1.108.307a2.11 2.11 0 0 0-.745.796 2.295 2.295 0 0 0-.267 1.073v1.21c0 .508.093.944.279 1.308.185.36.445.636.778.83.333.189.724.283 1.171.283.299 0 .57-.042.812-.125.243-.087.453-.214.631-.38.178-.167.312-.374.403-.62l1.921.216c-.122.508-.353.95-.694 1.33a3.373 3.373 0 0 1-1.295.875c-.526.204-1.129.306-1.807.306Zm12.519-6.591-1.875.204a1.501 1.501 0 0 0-.279-.534 1.387 1.387 0 0 0-.522-.403 1.906 1.906 0 0 0-.807-.154c-.428 0-.788.093-1.08.279-.288.185-.43.426-.426.721a.755.755 0 0 0 .278.62c.194.159.512.29.955.391l1.489.319c.825.178 1.439.46 1.841.846.405.387.609.892.613 1.517a2.376 2.376 0 0 1-.483 1.455c-.314.417-.752.742-1.312.977-.561.235-1.205.352-1.932.352-1.068 0-1.928-.223-2.58-.67-.651-.45-1.039-1.078-1.164-1.88l2.005-.194c.091.394.284.691.58.892.295.2.68.301 1.153.301.489 0 .881-.1 1.176-.3.3-.202.449-.45.449-.745a.773.773 0 0 0-.29-.62c-.189-.162-.484-.287-.886-.375l-1.489-.312c-.837-.174-1.456-.468-1.858-.88-.401-.417-.6-.944-.596-1.58-.004-.538.142-1.004.437-1.398.3-.398.714-.705 1.245-.92.534-.22 1.149-.33 1.846-.33 1.023 0 1.828.218 2.415.653.591.436.957 1.025 1.097 1.768Zm6.241-2.307v1.59h-5.017v-1.59h5.017Zm-3.778-2.091h2.057v8.193c0 .276.041.489.125.636.087.144.2.243.34.296.141.053.296.08.466.08.129 0 .247-.01.353-.029.109-.019.193-.036.25-.051l.346 1.608c-.11.038-.267.08-.471.125a3.871 3.871 0 0 1-.739.08 3.355 3.355 0 0 1-1.392-.234 2.163 2.163 0 0 1-.983-.806c-.239-.364-.356-.819-.352-1.364v-8.534Z" fill="#333"/>
</svg>
