<svg width="81" height="80" fill="none" xmlns="http://www.w3.org/2000/svg">
  <path fill-rule="evenodd" clip-rule="evenodd" d="m43.176 18.734 2.858 2.14a4.552 4.552 0 0 0 2.58.938l3.564.199a4.685 4.685 0 0 1 4.355 3.654l.815 3.476a4.55 4.55 0 0 0 1.372 2.377l2.603 2.444c1.559 1.462 1.952 3.691.988 5.599l-1.61 3.186a4.552 4.552 0 0 0-.478 2.703l.424 3.545c.254 2.122-.878 4.082-2.843 4.924l-3.281 1.405a4.55 4.55 0 0 0-2.103 1.765l-1.954 2.987a4.686 4.686 0 0 1-5.343 1.945l-3.417-1.033a4.55 4.55 0 0 0-2.745 0l-3.417 1.033a4.688 4.688 0 0 1-5.343-1.945l-1.954-2.987a4.552 4.552 0 0 0-2.102-1.765l-3.282-1.405c-1.965-.842-3.097-2.802-2.843-4.924l.423-3.545a4.55 4.55 0 0 0-.476-2.703l-1.61-3.186a4.686 4.686 0 0 1 .987-5.6l2.603-2.443a4.55 4.55 0 0 0 1.372-2.377l.814-3.476c.488-2.081 2.221-3.536 4.356-3.654l3.564-.199a4.551 4.551 0 0 0 2.58-.939l2.858-2.139a4.686 4.686 0 0 1 5.685 0ZM38.51 41.227l-3.101-3.102a2.06 2.06 0 0 0-2.912 2.912l4.562 4.562a2.06 2.06 0 0 0 2.912 0c2.75-2.75 5.468-5.53 8.205-8.293a2.056 2.056 0 0 0-2.916-2.896l-6.75 6.817Zm1.823-16.557a15.285 15.285 0 0 0-10.841 4.49A15.285 15.285 0 0 0 25 40.003c0 4.234 1.716 8.067 4.49 10.842a15.285 15.285 0 0 0 10.842 4.49c4.234 0 8.067-1.716 10.842-4.49a15.285 15.285 0 0 0 4.49-10.842 15.28 15.28 0 0 0-4.49-10.841 15.285 15.285 0 0 0-10.842-4.491Zm9.781 5.551a13.79 13.79 0 0 0-9.78-4.051 13.79 13.79 0 0 0-9.782 4.051 13.79 13.79 0 0 0-4.051 9.781 13.79 13.79 0 0 0 4.051 9.781 13.79 13.79 0 0 0 9.781 4.052 13.79 13.79 0 0 0 9.781-4.052 13.79 13.79 0 0 0 4.052-9.78c0-3.82-1.548-7.279-4.052-9.782Z" fill="#333"/>
</svg>
