<svg width="81" height="80" fill="none" xmlns="http://www.w3.org/2000/svg">
  <g clip-path="url('#clip0_960_35730')" fill="#333">
    <path d="M41.135 37.348a1.408 1.408 0 0 1-1.874-1.326v-8.678h-6.7c-1.213 0-1.856 1.439-1.047 2.344.461.515.716 1.181.716 1.875a2.816 2.816 0 0 1-2.813 2.812 2.816 2.816 0 0 1-2.813-2.813c0-.693.255-1.36.716-1.874.809-.905.166-2.344-1.048-2.344h-5.386a4.223 4.223 0 0 0-4.219 4.218v16.875a4.223 4.223 0 0 0 4.219 4.22h2.906a5.63 5.63 0 0 0 5.625 5.624 5.63 5.63 0 0 0 5.625-5.625h4.219v-8.678c0-.965 1.004-1.628 1.874-1.326 1.747.622 3.75-.782 3.75-2.652 0-1.873-2-3.275-3.75-2.652Z"/>
    <path d="M60.448 27.344h-2.906a5.63 5.63 0 0 0-5.625-5.625 5.63 5.63 0 0 0-5.625 5.625h-4.219v7.031A5.63 5.63 0 0 1 47.698 40a5.63 5.63 0 0 1-5.625 5.625v7.031h18.375a4.223 4.223 0 0 0 4.219-4.218V31.561a4.223 4.223 0 0 0-4.219-4.218Z"/>
  </g>
  <defs>
    <clipPath id="clip0_960_35730">
      <path fill="#fff" transform="translate(16.667 16)" d="M0 0h48v48H0z"/>
    </clipPath>
  </defs>
</svg>
