<svg width="80" height="80" fill="none" xmlns="http://www.w3.org/2000/svg">
  <g clip-path="url('#clip0_960_35580')" fill="#424244">
    <path d="M38.59 51.687V40.93l-5.573-5.572a1.441 1.441 0 1 1 2.039-2.04l4.976 4.977 4.976-4.976a1.442 1.442 0 1 1 2.039 2.039l-5.574 5.573v10.757h7.985a9.074 9.074 0 0 1 2.717-5.215 17.594 17.594 0 0 0 4.029-5.72 17.53 17.53 0 0 0 1.484-7.096 17.55 17.55 0 0 0-5.101-12.414A17.55 17.55 0 0 0 40.033 16c-9.604 0-17.505 7.75-17.656 17.373a17.542 17.542 0 0 0 1.414 7.221 17.582 17.582 0 0 0 4.043 5.828 9.289 9.289 0 0 1 2.77 5.265h7.986Zm-7.883 2.883v2.62a6.817 6.817 0 0 0 6.81 6.81h5.03a6.817 6.817 0 0 0 6.809-6.81v-2.62H30.707Z"/>
  </g>
  <defs>
    <clipPath id="clip0_960_35580">
      <path fill="#fff" transform="translate(16 16)" d="M0 0h48v48H0z"/>
    </clipPath>
  </defs>
</svg>
