<svg width="80" height="80" fill="none" xmlns="http://www.w3.org/2000/svg">
  <path d="M40.468 37.348a1.408 1.408 0 0 1-1.874-1.326v-8.678h-6.7c-1.213 0-1.856 1.439-1.047 2.344.461.515.715 1.181.715 1.875a2.816 2.816 0 0 1-2.812 2.812 2.816 2.816 0 0 1-2.813-2.813c0-.693.255-1.36.716-1.874.809-.905.166-2.344-1.048-2.344H20.22A4.223 4.223 0 0 0 16 31.562v16.875a4.223 4.223 0 0 0 4.219 4.22h2.906a5.63 5.63 0 0 0 5.625 5.624 5.63 5.63 0 0 0 5.625-5.625h4.219v-8.678c0-.965 1.004-1.628 1.874-1.326 1.747.622 3.75-.782 3.75-2.652 0-1.873-2-3.275-3.75-2.652Z" fill="#333"/>
  <path d="M59.781 27.344h-2.906a5.63 5.63 0 0 0-5.625-5.625 5.63 5.63 0 0 0-5.625 5.625h-4.219v7.031A5.63 5.63 0 0 1 47.031 40a5.63 5.63 0 0 1-5.625 5.625v7.031h18.375A4.223 4.223 0 0 0 64 48.438V31.561a4.223 4.223 0 0 0-4.219-4.218Z" fill="#333"/>
</svg>
