<svg width="81" height="80" fill="none" xmlns="http://www.w3.org/2000/svg">
  <path d="M14.18 41.165a2.53 2.53 0 0 0 0 3.376l10.169 11.35a2.53 2.53 0 1 0 3.767-3.376l-10.17-11.35a2.53 2.53 0 0 0-3.767 0Zm52.97-17.05a2.537 2.537 0 0 0-3.78 0L42.805 47.088a4 4 0 0 1-5.963-.002l-5.312-5.943a2.537 2.537 0 1 0-3.78 3.383l9.093 10.15a4 4 0 0 0 5.958 0L67.15 27.5a2.537 2.537 0 0 0 0-3.387Zm-13.57 3.37a2.53 2.53 0 0 0-3.767-3.375L37.932 37.37a2.53 2.53 0 0 0 3.767 3.375l11.882-13.26Z" fill="#424244"/>
</svg>
