<svg width="81" height="80" fill="none" xmlns="http://www.w3.org/2000/svg">
  <path d="M50.222 17.294a1.793 1.793 0 0 0-3.275 1.327l.163.755c.167.77-.143 1.548-.686 2.119-.544.572-1.335.892-2.105.715l-.802-.184a1.79 1.79 0 0 0-1.36 3.256l.63.4c.677.43 1.013 1.225 1.018 2.027.004.791-.332 1.565-1 1.989l-.67.425a1.791 1.791 0 0 0 1.334 3.264l.807-.172c.762-.163 1.528.141 2.09.68.577.551.895 1.356.705 2.13l-.192.781a1.78 1.78 0 0 0 3.227 1.387l.467-.728c.426-.665 1.212-.996 2.002-.995.803.002 1.586.344 2.01 1.026l.436.7a1.77 1.77 0 0 0 3.226-1.332l-.181-.789c-.177-.77.128-1.556.674-2.129.542-.569 1.328-.886 2.095-.713l.873.197a1.786 1.786 0 0 0 1.337-3.257l-.69-.43c-.666-.415-1-1.196-1.003-1.981-.003-.773.323-1.524.973-1.942l.742-.476a1.794 1.794 0 0 0-1.37-3.26l-.788.181c-.774.178-1.558-.135-2.11-.707-.542-.562-.852-1.347-.675-2.108l.177-.758a1.787 1.787 0 0 0-3.248-1.363l-.405.637c-.428.674-1.222 1.009-2.02 1.012-.794.004-1.567-.337-1.987-1.011l-.42-.673Zm2.387 6.251a4.2 4.2 0 0 1 1.625.349c2.14.9 3.156 3.315 2.264 5.456-.893 2.14-3.374 3.155-5.514 2.263-2.14-.892-3.156-3.366-2.264-5.514.675-1.603 2.249-2.546 3.889-2.554Zm-20.535 8.939c-1.144 0-2.12.83-2.304 1.96l-.161.993c-.167 1.025-.954 1.829-1.914 2.222-.948.388-2.033.362-2.867-.233l-.846-.602a2.34 2.34 0 0 0-3.278 3.246l.57.817c.596.855.616 1.961.234 2.93-.387.981-1.206 1.777-2.247 1.947l-.968.157a2.334 2.334 0 0 0-.028 4.603l1.046.183c1.012.177 1.8.959 2.184 1.911.387.96.369 2.062-.232 2.905l-.585.822a2.35 2.35 0 0 0 3.243 3.3l.898-.617c.841-.577 1.925-.59 2.87-.204.966.394 1.754 1.201 1.921 2.232l.16.984a2.334 2.334 0 0 0 4.604.028l.18-1.034c.18-1.02.963-1.821 1.915-2.23.958-.413 2.065-.396 2.918.203l.885.621a2.325 2.325 0 0 0 3.216-3.271l-.612-.843c-.61-.837-.64-1.937-.251-2.897.385-.95 1.176-1.731 2.187-1.906l1.105-.19a2.33 2.33 0 0 0-.028-4.596l-1.048-.168c-1.027-.165-1.834-.948-2.226-1.911-.386-.948-.365-2.035.222-2.873l.64-.912a2.325 2.325 0 0 0-3.27-3.216l-.83.603c-.846.615-1.958.64-2.917.227-.947-.409-1.727-1.203-1.904-2.219l-.182-1.04a2.334 2.334 0 0 0-2.3-1.932Zm.046 10.273a5.422 5.422 0 0 1 5.456 5.456c0 3.04-2.416 5.514-5.456 5.514a5.52 5.52 0 0 1-5.514-5.514c0-3.04 2.474-5.456 5.514-5.456Z" fill="#333"/>
</svg>
