<svg width="80" height="80" fill="none" xmlns="http://www.w3.org/2000/svg">
  <g clip-path="url('#clip0_960_35991')" fill="#333">
    <path d="m62.982 39.657-10.5-3.572a1.475 1.475 0 0 0-.964 0l-10.5 3.572A1.496 1.496 0 0 0 40 41.077v8.036c0 9.808 10.948 14.576 11.414 14.774.376.158.796.158 1.172 0C53.052 63.687 64 58.92 64 49.113v-8.036c0-.644-.408-1.214-1.018-1.42Zm-4.41 7.584-5.5 7a2.001 2.001 0 0 1-2.874.284l-3.5-3a1.999 1.999 0 1 1 2.602-3.036l1.916 1.642 4.21-5.358a1.997 1.997 0 0 1 2.808-.336 1.992 1.992 0 0 1 .338 2.804Z"/>
    <path d="m58.572 47.24-5.5 7a2.001 2.001 0 0 1-2.874.285l-3.5-3a1.999 1.999 0 1 1 2.602-3.036l1.916 1.642 4.21-5.358a1.997 1.997 0 0 1 2.808-.336 1.992 1.992 0 0 1 .338 2.804ZM43.86 63.904c-.6.06-1.22.1-1.84.1H34c-5.04-.04-8.98-3.5-12-12-3.02-8.5-6-7.48-6-10 0-.92 1-2 4-2 4.76 0 8 6 8 6v-25c0-1.66 1.34-3 3-3s3 1.34 3 3v20.5c0 .28.22.5.5.5s.5-.22.5-.5v-22.5c0-1.66 1.34-3 3-3s3 1.34 3 3v16.44l-1.26.42a5.51 5.51 0 0 0-3.74 5.22v8.02c0 6.56 3.8 11.56 7.86 14.8Z"/>
    <path d="M48 21.004v12.06l-6 2.04v-14.1c0-1.66 1.34-3 3-3s3 1.34 3 3Zm7 6v5.72l-1.22-.42c-1.14-.4-2.42-.4-3.54 0l-1.24.42v-5.72c0-1.66 1.34-3 3-3s3 1.34 3 3Z"/>
  </g>
  <defs>
    <clipPath id="clip0_960_35991">
      <path fill="#fff" transform="translate(16 16.004)" d="M0 0h48v48H0z"/>
    </clipPath>
  </defs>
</svg>
